<?xml version="1.0" encoding="UTF-8"?>
<svg version="1.1" xmlns="http://www.w3.org/2000/svg" width="512" height="512">
<path d="M0 0 C41.25 0 82.5 0 125 0 C125 6.6 125 13.2 125 20 C83.75 20 42.5 20 0 20 C0 18.02 0 16.04 0 14 C-39.6 14 -79.2 14 -120 14 C-120 11.36 -120 8.72 -120 6 C-80.4 6 -40.8 6 0 6 C0 4.02 0 2.04 0 0 Z " fill="#009393" transform="translate(387,246)"/>
<path d="M0 0 C0.59423828 1.76586914 0.59423828 1.76586914 1.0703125 4.03515625 C1.24433594 4.84404297 1.41835938 5.65292969 1.59765625 6.48632812 C1.77167969 7.33646484 1.94570313 8.18660156 2.125 9.0625 C2.39763672 10.34350586 2.39763672 10.34350586 2.67578125 11.65039062 C3.12476342 13.76533296 3.56335351 15.88247647 4 18 C-3.22667312 19.38071658 -10.44323856 20.52070432 -17.74462891 21.42041016 C-18.75590347 21.54749863 -19.76717804 21.6745871 -20.80909729 21.80552673 C-24.11452204 22.21995781 -27.42049715 22.62977538 -30.7265625 23.0390625 C-33.04342039 23.32755303 -35.36026383 23.61615969 -37.67709351 23.90487671 C-42.51655721 24.50712706 -47.35632211 25.10688621 -52.19628906 25.70507812 C-58.3848956 26.47031457 -64.57248702 27.24344883 -70.75985146 28.01865578 C-75.53786749 28.61610843 -80.31649887 29.20851832 -85.09531784 29.79951096 C-87.3767906 30.0824316 -89.65804733 30.36710021 -91.93907547 30.65358353 C-95.13014585 31.05376606 -98.3220092 31.44692225 -101.51416016 31.83837891 C-102.44634872 31.95679642 -103.37853729 32.07521393 -104.338974 32.19721985 C-109.93746249 32.87475373 -115.3601739 33.10650135 -121 33 C-121.33 31.35 -121.66 29.7 -122 28 C-123.26913239 28.18524734 -124.53826477 28.37049469 -125.84585571 28.56135559 C-138.63873852 30.41623616 -151.44503202 32.11043226 -164.2734375 33.69921875 C-166.22206175 33.9415081 -168.1706802 34.1838441 -170.11929321 34.42622375 C-174.15422535 34.92756629 -178.1893534 35.42729645 -182.22460938 35.92602539 C-187.38383592 36.56395838 -192.54232185 37.20768948 -197.7006588 37.85277081 C-201.70320092 38.35238515 -205.70621421 38.84813969 -209.70936966 39.34281349 C-211.6128615 39.57865514 -213.51618295 39.81587657 -215.41932297 40.05454063 C-218.06861616 40.38636169 -220.71852494 40.71276001 -223.36865234 41.0378418 C-224.1427092 41.13598679 -224.91676605 41.23413177 -225.71427917 41.33525085 C-230.18038063 41.87636063 -234.50095226 42.09138524 -239 42 C-240.35439668 39.29120665 -240.06501451 36.99066732 -240 34 C-225.18832938 32.17242081 -210.37640451 30.34691345 -195.5641737 28.52388 C-188.68678489 27.67738779 -181.8094812 26.83021487 -174.93237305 25.98144531 C-168.29957782 25.16283068 -161.66655248 24.34610534 -155.03338051 23.5305481 C-152.49868319 23.21858707 -149.96406462 22.90598562 -147.42952538 22.59274292 C-143.8883612 22.15520128 -140.34692766 21.71990697 -136.80541992 21.28515625 C-135.75022156 21.15424591 -134.69502319 21.02333557 -133.60784912 20.88845825 C-132.64451157 20.7706601 -131.68117401 20.65286194 -130.68864441 20.53149414 C-129.85073459 20.42825333 -129.01282476 20.32501251 -128.14952374 20.21864319 C-126 20 -126 20 -123 20 C-123 18.02 -123 16.04 -123 14 C-107.25902896 12.01951702 -91.5171979 10.04602912 -75.77430153 8.0809164 C-68.46499731 7.16836339 -61.15599548 6.25350397 -53.84765625 5.33325195 C-47.47939475 4.53137862 -41.11061343 3.73379461 -34.74116457 2.94140583 C-31.36709164 2.52150224 -27.9933226 2.09942237 -24.62016678 1.67220879 C-20.85895128 1.19694034 -17.09686683 0.72925943 -13.33447266 0.26342773 C-12.21022385 0.11957138 -11.08597504 -0.02428497 -9.92765808 -0.17250061 C-8.90679611 -0.29733826 -7.88593414 -0.4221759 -6.83413696 -0.55079651 C-5.94368494 -0.66233346 -5.05323292 -0.77387041 -4.1357975 -0.88878727 C-2 -1 -2 -1 0 0 Z " fill="#009393" transform="translate(504,190)"/>
<path d="M0 0 C12.58161364 0.62791645 25.01380362 2.12113515 37.5078125 3.6875 C39.64912068 3.95303337 41.79046869 4.21824571 43.93185425 4.4831543 C48.38816561 5.03532304 52.84411837 5.59027138 57.29980469 6.14746094 C63.0076291 6.86115645 68.71610929 7.56943463 74.42483711 8.27586365 C78.83276521 8.82163825 83.24044307 9.36941066 87.64803696 9.9178772 C89.75391259 10.17984263 91.85984128 10.44138197 93.96582413 10.70248413 C96.89949558 11.06667638 99.83284517 11.4333564 102.76611328 11.80078125 C104.06433266 11.96134506 104.06433266 11.96134506 105.38877869 12.12515259 C109.29559296 12.61705469 113.15103563 13.14919495 117 14 C117.33 12.35 117.66 10.7 118 9 C131.64806345 9.6044217 145.12869882 11.22727357 158.6796875 12.90625 C161.02853704 13.1941951 163.37742487 13.48182801 165.72634888 13.76916504 C170.61302714 14.36799582 175.49928599 14.97010855 180.38525391 15.57470703 C186.65701857 16.35057959 192.9296928 17.11879909 199.20268059 17.88471222 C204.03612212 18.4755777 208.86911344 19.07005871 213.70196915 19.66569519 C216.01678856 19.95061464 218.33173767 20.23448237 220.64681625 20.51728821 C223.86380071 20.91088935 227.08015814 21.30926027 230.29638672 21.70898438 C231.73466324 21.8835743 231.73466324 21.8835743 233.20199585 22.06169128 C234.07352295 22.17100479 234.94505005 22.2803183 235.84298706 22.39294434 C236.98157071 22.53341312 236.98157071 22.53341312 238.14315605 22.67671967 C240 23 240 23 242 24 C241.59636759 29.00504188 240.95165916 33.51987217 239.45703125 38.3203125 C239.18479736 39.20219238 238.91256348 40.08407227 238.63208008 40.99267578 C238.42349365 41.65509277 238.21490723 42.31750977 238 43 C227.99962387 41.81565968 217.99965327 40.62792656 208 39.4375 C207.25216122 39.34847412 206.50432243 39.25944824 205.73382187 39.16772461 C175.47403046 35.5641891 145.23269456 31.8246296 115 28 C115.33 26.02 115.66 24.04 116 22 C114.82507996 21.88834503 113.65015991 21.77669006 112.43963623 21.66165161 C99.20694969 20.38314439 86.01925958 18.82790828 72.828125 17.1796875 C70.68197141 16.91329658 68.53579169 16.64711614 66.3895874 16.38113403 C60.81319549 15.68948335 55.23715685 14.99502563 49.66119385 14.29992676 C43.94231391 13.58753537 38.22309492 12.87787655 32.50390625 12.16796875 C21.33560923 10.78127826 10.16768454 9.39161387 -1 8 C-1.125 2.25 -1.125 2.25 0 0 Z " fill="#009393" transform="translate(265,280)"/>
<path d="M0 0 C9.85516369 2.41260793 19.70926744 4.82951865 29.5625 7.25 C30.29428844 7.42976379 31.02607689 7.60952759 31.78004074 7.79473877 C58.56020342 14.37486641 85.29876791 21.10577245 112 28 C112.33 26.35 112.66 24.7 113 23 C120.46448109 24.27287607 127.80194118 25.83797112 135.14697266 27.67382812 C136.72705109 28.06446693 136.72705109 28.06446693 138.33905029 28.46299744 C141.7816652 29.31532729 145.22294421 30.17289924 148.6640625 31.03125 C151.06731483 31.62901578 153.47058455 32.22671164 155.87387085 32.82434082 C160.88905324 34.07253871 165.90347671 35.32373668 170.91748047 36.57666016 C177.35747761 38.18533022 183.80009927 39.78309016 190.24344826 41.37827301 C195.19630112 42.60630745 200.1472955 43.84170367 205.09778976 45.07920837 C207.47429293 45.6719837 209.85147493 46.26204416 212.22932816 46.84938049 C215.53719782 47.66724792 218.84233574 48.49535406 222.14697266 49.32617188 C223.13597565 49.56830917 224.12497864 49.81044647 225.14395142 50.05992126 C226.03815796 50.28696243 226.9323645 50.5140036 227.85366821 50.7479248 C228.63488855 50.94259087 229.41610889 51.13725693 230.22100258 51.33782196 C232 52 232 52 233 54 C232.37915039 55.69580078 232.37915039 55.69580078 231.34765625 57.6953125 C230.98349609 58.41074219 230.61933594 59.12617188 230.24414062 59.86328125 C229.85419922 60.60964844 229.46425781 61.35601562 229.0625 62.125 C228.48338867 63.25615234 228.48338867 63.25615234 227.89257812 64.41015625 C226.93547868 66.27709097 225.96863894 68.13902628 225 70 C218.29149034 69.39814211 212.00035401 68.1745557 205.47900391 66.515625 C204.46813721 66.26349243 203.45727051 66.01135986 202.41577148 65.75158691 C199.10126113 64.92336048 195.78891901 64.08679491 192.4765625 63.25 C190.16502732 62.67041765 187.8533697 62.09132342 185.54159546 61.51269531 C180.71091659 60.30236259 175.88120386 59.08827491 171.05224609 57.87109375 C164.85599205 56.3092736 158.65822263 54.75357766 152.45983315 53.20025635 C146.54828112 51.71867611 140.63734747 50.2346371 134.7265625 48.75 C133.59661488 48.4662854 132.46666725 48.1825708 131.30247879 47.89025879 C128.1161924 47.08962681 124.93033511 46.28731202 121.74462891 45.484375 C120.79707733 45.24642212 119.84952576 45.00846924 118.8732605 44.76330566 C118.00707092 44.54460815 117.14088135 44.32591064 116.2484436 44.10058594 C115.49596659 43.91107361 114.74348957 43.72156128 113.96821022 43.52630615 C112.29455533 43.0787651 110.64355478 42.54785159 109 42 C109.33 40.02 109.66 38.04 110 36 C108.42991432 35.66000473 108.42991432 35.66000473 106.82810974 35.31314087 C94.57192262 32.63679441 82.39417196 29.68424171 70.22265625 26.6484375 C68.1929142 26.14324987 66.1631645 25.63809299 64.13340759 25.13296509 C59.92192273 24.08417619 55.7109419 23.03338953 51.50024414 21.98144531 C46.10146761 20.63311173 40.70081693 19.29244592 35.29970646 17.95349693 C31.1269639 16.91772577 26.9555454 15.87670081 22.78448296 14.83418655 C20.79182174 14.3370727 18.79867564 13.84189824 16.80504036 13.34870529 C14.03535837 12.66297067 11.26761769 11.96988521 8.50024414 11.27490234 C7.67904083 11.07331009 6.85783752 10.87171783 6.01174927 10.66401672 C2.55576737 9.78880669 -0.00632553 8.99578298 -3 7 C-2.01 4.69 -1.02 2.38 0 0 Z " fill="#009393" transform="translate(259,302)"/>
<path d="M0 0 C1.19963643 2.43218059 2.38484438 4.86970578 3.5625 7.3125 C3.90474609 8.00279297 4.24699219 8.69308594 4.59960938 9.40429688 C7.11328125 14.66015625 7.11328125 14.66015625 6 18 C4.07371712 18.82204723 4.07371712 18.82204723 1.49612427 19.4617157 C0.52304321 19.70985016 -0.45003784 19.95798462 -1.4526062 20.21363831 C-2.52898346 20.4740239 -3.60536072 20.73440948 -4.71435547 21.00268555 C-5.8410968 21.28597717 -6.96783813 21.5692688 -8.12872314 21.86114502 C-11.87187974 22.79884934 -15.61934831 23.71792451 -19.3671875 24.63671875 C-21.95958194 25.28159325 -24.55172426 25.9274092 -27.14358521 26.57441711 C-32.5840143 27.93037335 -38.02675639 29.2766786 -43.47119141 30.61645508 C-50.46102437 32.33656726 -57.4470169 34.07176469 -64.43185234 35.8120451 C-71.07563567 37.46729296 -77.72139318 39.11456741 -84.3671875 40.76171875 C-85.64212948 41.07828619 -86.91707146 41.39485363 -88.23064804 41.72101402 C-91.82845776 42.61298073 -95.42743446 43.50005908 -99.02685547 44.38549805 C-100.09918427 44.65195633 -101.17151306 44.91841461 -102.27633667 45.19294739 C-103.25505737 45.43262238 -104.23377808 45.67229736 -105.24215698 45.91923523 C-106.09351667 46.12919475 -106.94487637 46.33915426 -107.82203484 46.55547619 C-110 47 -110 47 -113 47 C-113.33 45.35 -113.66 43.7 -114 42 C-114.80955139 42.20551987 -115.61910278 42.41103973 -116.45318604 42.62278748 C-120.3906407 43.62232139 -124.32812426 44.62174136 -128.265625 45.62109375 C-129.36624488 45.90044045 -129.36624488 45.90044045 -130.4890995 46.18543053 C-139.35474161 48.435488 -148.22077491 50.68399125 -157.08764648 52.92919922 C-157.89542636 53.13374474 -158.70320623 53.33829025 -159.53546429 53.54903412 C-162.77362675 54.36897007 -166.01179721 55.18887438 -169.25001335 56.00859833 C-177.75832503 58.16248452 -186.26570981 60.31969134 -194.7684021 62.49568176 C-198.13520352 63.35666255 -201.5032449 64.21269997 -204.8717041 65.06716919 C-206.3193752 65.43578205 -207.76641291 65.80689245 -209.21276855 66.18063354 C-211.15192215 66.68151164 -213.09346915 67.17309737 -215.03515625 67.6640625 C-216.0600415 67.92654785 -217.08492676 68.1890332 -218.14086914 68.45947266 C-221.15671263 69.029627 -223.93793801 69.09731672 -227 69 C-227.66 66.69 -228.32 64.38 -229 62 C-158.9431839 44.21175102 -158.9431839 44.21175102 -136.19555664 38.50457764 C-134.5286867 38.08615645 -132.86201837 37.66693124 -131.19555664 37.24688721 C-128.94735482 36.68048554 -126.69842931 36.1170678 -124.44921875 35.5546875 C-123.23580811 35.25030762 -122.02239746 34.94592773 -120.7722168 34.63232422 C-118 34 -118 34 -116 34 C-116.495 31.03 -116.495 31.03 -117 28 C-102.4851659 24.34208378 -87.96864709 20.69091496 -73.4501009 17.04776001 C-66.7088448 15.35600217 -59.96815563 13.66204532 -53.22875977 11.96289062 C-46.72676817 10.32359753 -40.22325868 8.6904622 -33.71877098 7.06109619 C-31.23552259 6.43797174 -28.75279348 5.81277413 -26.27059364 5.18548584 C-22.7980336 4.30829284 -19.32371238 3.43844112 -15.84887695 2.5703125 C-14.81957062 2.30849182 -13.79026428 2.04667114 -12.72976685 1.7769165 C-11.78050827 1.54132019 -10.83124969 1.30572388 -9.85322571 1.06298828 C-8.62124938 0.75326584 -8.62124938 0.75326584 -7.36438465 0.43728638 C-4.86025116 -0.02584616 -2.54089606 -0.07684753 0 0 Z " fill="#009292" transform="translate(485,140)"/>
<path d="M0 0 C1.72127138 1.95152302 3.27415127 3.8541646 4.8125 5.9375 C5.23208984 6.47568359 5.65167969 7.01386719 6.08398438 7.56835938 C7.26953125 9.15234375 7.26953125 9.15234375 9 12 C8.67 12.99 8.34 13.98 8 15 C5.33964539 16.31672668 5.33964539 16.31672668 1.73706055 17.65551758 C0.75552096 18.02588292 0.75552096 18.02588292 -0.2458477 18.40373039 C-2.4269713 19.22389562 -4.61374094 20.02779063 -6.80078125 20.83203125 C-8.33955573 21.4073941 -9.87790484 21.98389576 -11.41584778 22.56147766 C-14.64501671 23.77259499 -17.87635885 24.97763963 -21.10943604 26.17828369 C-25.79944316 27.92201193 -30.48007156 29.68971614 -35.15771484 31.46630859 C-36.66258602 32.0377541 -38.16745866 32.60919576 -39.67233276 33.18063354 C-40.41435818 33.46240322 -41.15638359 33.7441729 -41.92089462 34.03448105 C-46.4169363 35.73967456 -50.91642652 37.43573346 -55.41561699 39.13259697 C-60.01047055 40.86560948 -64.60424774 42.60143377 -69.1972456 44.33935833 C-72.21719233 45.48135743 -75.23807098 46.62087496 -78.25921059 47.75971413 C-79.68002863 48.29579218 -81.10049842 48.83279432 -82.52058983 49.3707943 C-84.48303568 50.11402049 -86.44678833 50.85368843 -88.41088867 51.5925293 C-89.51857101 52.01076462 -90.62625336 52.42899994 -91.76750183 52.85990906 C-95.15382104 54.05425215 -98.53892812 55.04788758 -102 56 C-102.99 53.525 -102.99 53.525 -104 51 C-104.9796875 51.40347656 -105.959375 51.80695313 -106.96875 52.22265625 C-120.4633453 57.7219622 -134.10218672 62.82296094 -147.75488281 67.91259766 C-157.11745259 71.40549424 -166.46436139 74.93443936 -175.7890625 78.52734375 C-177.72444407 79.271491 -179.65982815 80.0156317 -181.59521484 80.75976562 C-184.40937968 81.84215992 -187.22255315 82.92683596 -190.03302002 84.01879883 C-192.62920163 85.02742184 -195.22832935 86.0280808 -197.828125 87.02734375 C-198.98473129 87.48088478 -198.98473129 87.48088478 -200.16470337 87.94358826 C-203.69375017 89.2923227 -206.17190428 90 -210 90 C-213 85.92857143 -213 85.92857143 -213 83 C-211.87247314 82.57404541 -210.74494629 82.14809082 -209.58325195 81.70922852 C-208.82591263 81.4231221 -208.0685733 81.13701569 -207.2882843 80.84223938 C-205.55219133 80.18638296 -203.81609713 79.53052982 -202.08000183 78.87467957 C-197.13012905 77.00474442 -192.18027941 75.13474804 -187.23046875 73.26464844 C-177.66696111 69.65150524 -168.10332906 66.03869385 -158.53886414 62.42808533 C-154.49599866 60.90187031 -150.45324176 59.3753678 -146.41049194 57.84884644 C-144.48983069 57.12370725 -142.56911647 56.39870835 -140.64834595 55.67385864 C-138.81771837 54.98301602 -136.98716505 54.29197656 -135.1566925 53.60072327 C-133.43610274 52.95104091 -131.71531509 52.30188236 -129.99430847 51.65330505 C-126.30254014 50.25977409 -122.61611044 48.85616954 -118.9453125 47.40820312 C-117.77742188 46.94865234 -116.60953125 46.48910156 -115.40625 46.015625 C-114.41947266 45.62149414 -113.43269531 45.22736328 -112.41601562 44.82128906 C-110 44 -110 44 -107 44 C-107.99 41.03 -107.99 41.03 -109 38 C-94.60447707 32.07131753 -80.04596322 26.58959138 -65.45605469 21.16210938 C-56.84978842 17.95779474 -48.25675313 14.72588384 -39.69541931 11.4030304 C-35.55742285 9.79723564 -31.41533072 8.20214532 -27.27316284 6.60714722 C-25.26317369 5.82949205 -23.25527379 5.04641443 -21.24954224 4.25784302 C-18.44752526 3.15679084 -15.63887639 2.0746139 -12.828125 0.99609375 C-11.99141769 0.66153168 -11.15471039 0.3269696 -10.29264832 -0.01773071 C-9.51963882 -0.31037811 -8.74662933 -0.60302551 -7.95019531 -0.90454102 C-7.28030579 -1.16574234 -6.61041626 -1.42694366 -5.92022705 -1.69606018 C-3.31407248 -2.10857085 -2.18427061 -1.42131732 0 0 Z " fill="#009393" transform="translate(458,98)"/>
<path d="M0 0 C4.97474648 0.39111142 9.77775896 2.68019497 14.40625 4.4375 C15.34340347 4.78981186 16.28055695 5.14212372 17.24610901 5.50511169 C20.33215668 6.66635082 23.41609327 7.83308833 26.5 9 C28.64238117 9.80767969 30.7848794 10.61504891 32.92749023 11.42211914 C37.37551229 13.09837524 41.82261979 14.77702701 46.26904297 16.45751953 C51.76835871 18.53565282 57.26969121 20.60837278 62.77200317 22.67855835 C66.88719483 24.22696088 71.0017883 25.7769479 75.11621094 27.32739258 C77.0696895 28.0634273 79.02330137 28.79910835 80.97705078 29.53442383 C83.7053627 30.56170482 86.43286867 31.59109686 89.16015625 32.62109375 C89.95603653 32.92035263 90.75191681 33.21961151 91.57191467 33.52793884 C96.1013158 35.24143219 100.5627907 37.05980055 105 39 C105.33 37.35 105.66 35.7 106 34 C109.46336321 34.61796797 112.62409805 35.50103734 115.91479492 36.73974609 C116.87592697 37.09943985 117.83705902 37.45913361 118.82731628 37.82972717 C119.8678566 38.22365158 120.90839691 38.61757599 121.98046875 39.0234375 C123.08219925 39.43714096 124.18392975 39.85084442 125.31904602 40.27708435 C128.94331059 41.63924579 132.56542772 43.00702091 136.1875 44.375 C138.06021052 45.07997418 139.93292181 45.78494641 141.8057766 46.48953724 C166.89481299 55.92874984 191.95227308 65.45179328 217 75 C217 79.98594047 214.99555463 82.06627742 212 85.75 C211.52304687 86.35199219 211.04609375 86.95398438 210.5546875 87.57421875 C209.37839461 89.05634779 208.19031607 90.52910943 207 92 C200.25273453 90.06149663 193.66866982 87.85501659 187.10546875 85.3671875 C186.17525406 85.01766022 185.24503937 84.66813293 184.28663635 84.30801392 C181.25235262 83.16693425 178.21989361 82.02109215 175.1875 80.875 C173.07008012 80.0772267 170.95256569 79.27970431 168.83496094 78.48242188 C164.44376716 76.82842992 160.05338264 75.17231358 155.66357422 73.51464844 C150.16855474 71.44002798 144.67138666 69.37117874 139.17329407 67.30471802 C135.02296598 65.74456332 130.8733965 64.18239883 126.72402954 62.61968994 C124.74799372 61.87573384 122.77173771 61.13236228 120.79525757 60.3895874 C118.04499511 59.35558745 115.2957987 58.31880291 112.546875 57.28125 C111.73553604 56.9768399 110.92419708 56.67242981 110.08827209 56.35879517 C109.34081223 56.07603729 108.59335236 55.79327942 107.82324219 55.50195312 C107.1774823 55.25868286 106.53172241 55.0154126 105.86639404 54.76477051 C103.8546679 53.94044896 101.93258074 52.99438858 100 52 C100.33 50.35 100.66 48.7 101 47 C76.22839355 37.41276269 51.40435696 27.96585475 26.5625 18.5625 C25.80666878 18.27639484 25.05083755 17.99028969 24.27210236 17.69551468 C14.84870793 14.12865142 5.42465884 10.56352102 -4 7 C-2.92598892 4.08482708 -2.22189824 2.22189824 0 0 Z " fill="#009393" transform="translate(249,324)"/>
<path d="M0 0 C3.14575332 1.41137593 5.45266773 3.12400487 8 5.4375 C10.03663514 7.2792228 11.97961124 8.98608892 14.25 10.53515625 C14.8275 11.01855469 15.405 11.50195312 16 12 C16 12.99 16 13.98 16 15 C15.49364014 15.25056152 14.98728027 15.50112305 14.46557617 15.75927734 C4.51030407 20.69272492 -5.40051825 25.69348869 -15.21801758 30.89599609 C-22.61972944 34.81379745 -30.05835211 38.65885283 -37.5 42.5 C-45.84572925 46.80978224 -54.18725057 51.12681202 -62.5 55.5 C-63.24967041 55.89292236 -63.99934082 56.28584473 -64.77172852 56.69067383 C-68.17597846 58.48147708 -71.55659792 60.30111046 -74.90234375 62.19921875 C-75.50433594 62.53695312 -76.10632813 62.8746875 -76.7265625 63.22265625 C-78.30143873 64.11077138 -79.86794352 65.01368837 -81.43359375 65.91796875 C-84 67 -84 67 -86.28515625 66.80078125 C-88 66 -88 66 -89 64 C-92.29274117 65.28014678 -95.47243663 66.67211315 -98.6328125 68.25 C-99.51074463 68.68795898 -100.38867676 69.12591797 -101.29321289 69.57714844 C-102.69494751 70.28145996 -102.69494751 70.28145996 -104.125 71 C-105.10782959 71.49274414 -106.09065918 71.98548828 -107.10327148 72.49316406 C-113.88086249 75.90356167 -120.61328538 79.39093311 -127.31640625 82.94506836 C-134.72540365 86.87040042 -142.17405364 90.71766793 -149.625 94.5625 C-160.11730103 99.97824662 -170.58434148 105.43794791 -181 111 C-182.65 109.35 -184.3 107.7 -186 106 C-184.75069734 102.25209201 -183.12417962 101.75643561 -179.73065186 100.01861572 C-178.98680237 99.65024597 -178.24295288 99.28187622 -177.4765625 98.90234375 C-176.70822083 98.51197937 -175.93987915 98.12161499 -175.14825439 97.71942139 C-172.64491649 96.44983501 -170.13501859 95.19381861 -167.625 93.9375 C-165.9032515 93.06661156 -164.18205989 92.1946213 -162.46142578 91.3215332 C-159.10814866 89.6204645 -155.75304206 87.92310088 -152.39648438 86.22851562 C-147.52840544 83.76643363 -142.69135544 81.24923618 -137.875 78.6875 C-132.63638123 75.90884569 -127.3845517 73.15740035 -122.1171875 70.43359375 C-121.51031097 70.11966171 -120.90343445 69.80572968 -120.27816772 69.48228455 C-117.26838206 67.92579965 -114.25761969 66.37126326 -111.24560547 64.8190918 C-104.47044672 61.323886 -104.47044672 61.323886 -97.828125 57.5859375 C-95 56 -95 56 -93 56 C-93.99 53.03 -93.99 53.03 -95 50 C-84.19095827 44.28608512 -73.35773153 38.62088598 -62.5 33 C-54.08910406 28.6456995 -45.68963697 24.27198162 -37.31640625 19.84570312 C-32.53505267 17.32244114 -27.7402895 14.82594199 -22.9375 12.34375 C-22.32362427 12.02631836 -21.70974854 11.70888672 -21.07727051 11.38183594 C-18.01823424 9.80034243 -14.95815104 8.22092635 -11.89648438 6.64453125 C-10.78595703 6.07089844 -9.67542969 5.49726562 -8.53125 4.90625 C-7.03948242 4.13764648 -7.03948242 4.13764648 -5.51757812 3.35351562 C-2.86710102 1.97969952 -2.86710102 1.97969952 0 0 Z " fill="#009393" transform="translate(417,58)"/>
<path d="M0 0 C4.66512223 0.5557979 8.11442228 1.84348038 12.26171875 4.02734375 C12.84505478 4.33157257 13.42839081 4.63580139 14.02940369 4.94924927 C15.91966846 5.93749345 17.80351417 6.93734577 19.6875 7.9375 C21.00595415 8.62957505 22.3248054 9.32089409 23.64404297 10.01147461 C27.43435102 11.99827881 31.21739007 13.99858034 35 16 C36.72753324 16.90948383 38.45534699 17.81843527 40.18359375 18.7265625 C42.38993492 19.88635768 44.59576243 21.04704909 46.79956055 22.21166992 C54.97256224 26.52849029 63.18630025 30.76712615 71.40087891 35.00415039 C77.61035146 38.21405378 83.76490238 41.49384508 89.85546875 44.92480469 C91.89815098 46.14939677 91.89815098 46.14939677 94 46 C94.66 45.01 95.32 44.02 96 43 C100.97445465 43.59498379 104.79898904 45.82819123 109.125 48.1875 C110.82495238 49.09871755 112.52550971 50.0088071 114.2265625 50.91796875 C115.14856445 51.41216309 116.07056641 51.90635742 117.02050781 52.41552734 C122.48930581 55.32379504 127.99718564 58.15678925 133.5 61 C141.91358964 65.3547696 150.31607869 69.72847057 158.69018555 74.15869141 C163.43157114 76.66235616 168.18931695 79.13282717 172.95703125 81.5859375 C174.18491199 82.21871865 175.41277652 82.85153125 176.640625 83.484375 C179.03841015 84.72005899 181.43841964 85.95105191 183.83984375 87.1796875 C189.08855834 89.88394326 194.20075358 92.55133797 199 96 C194.72706118 101.23435005 190.18419194 105.67106815 185 110 C181.70725883 108.71985322 178.52756337 107.32788685 175.3671875 105.75 C174.48925537 105.31204102 173.61132324 104.87408203 172.70678711 104.42285156 C171.77229736 103.95331055 170.83780762 103.48376953 169.875 103 C168.40075562 102.26088379 168.40075562 102.26088379 166.89672852 101.50683594 C160.11767075 98.09570028 153.38393109 94.60732952 146.67919922 91.05273438 C139.94278447 87.48403021 133.17492509 83.97763346 126.40084839 80.48117065 C117.21384883 75.73907001 108.02956222 70.99202202 98.875 66.1875 C98.10607422 65.7853125 97.33714844 65.383125 96.54492188 64.96875 C93.59929334 63.41841919 90.77228938 61.84819292 88 60 C88.33 58.35 88.66 56.7 89 55 C77.39808454 48.34006878 65.6135558 42.11978882 53.6875 36.0625 C50.39885923 34.38844242 47.11122085 32.71242892 43.82421875 31.03515625 C43.01570969 30.62273682 42.20720062 30.21031738 41.37419128 29.78540039 C33.21803416 25.61615256 25.11424758 21.349107 17.0171814 17.0664978 C14.34285171 15.65256114 11.66572135 14.24397369 8.98828125 12.8359375 C2.49414062 9.41796875 2.49414062 9.41796875 -4 6 C-2.68 4.02 -1.36 2.04 0 0 Z " fill="#009292" transform="translate(234,344)"/>
<path d="M0 0 C1.94458008 0.93969727 1.94458008 0.93969727 3.76953125 2.06640625 C4.43017578 2.46923828 5.09082031 2.87207031 5.77148438 3.28710938 C6.44501953 3.70798828 7.11855469 4.12886719 7.8125 4.5625 C8.50537109 4.98724609 9.19824219 5.41199219 9.91210938 5.84960938 C11.61216951 6.89309456 13.30665476 7.94565296 15 9 C11.04301666 13.3464502 6.80125116 16.1632679 1.75 19.125 C0.1238827 20.09839632 -1.50109221 21.07370327 -3.125 22.05078125 C-3.94355469 22.54271973 -4.76210938 23.0346582 -5.60546875 23.54150391 C-9.198684 25.73011197 -12.72715619 28.01285997 -16.25 30.3125 C-25.49104215 36.33342522 -34.79766967 42.24891346 -44.10791016 48.16210938 C-47.07701912 50.04894479 -50.04459758 51.93816543 -53.01171875 53.828125 C-53.99374268 54.45356201 -54.9757666 55.07899902 -55.98754883 55.72338867 C-57.85599753 56.91346427 -59.72433198 58.10371927 -61.5925293 59.29418945 C-63.27382352 60.36465205 -64.95614114 61.43350956 -66.63964844 62.50048828 C-68.20943084 63.49775799 -69.77523101 64.50132469 -71.33691406 65.51123047 C-72.05331055 65.97029785 -72.76970703 66.42936523 -73.5078125 66.90234375 C-74.13574707 67.30831787 -74.76368164 67.71429199 -75.41064453 68.13256836 C-77 69 -77 69 -79 69 C-79.33 67.68 -79.66 66.36 -80 65 C-88.94663432 69.49383696 -97.20021554 74.95722867 -105.55859375 80.44140625 C-110.96680307 83.9887473 -116.4145115 87.4713192 -121.875 90.9375 C-122.77919678 91.51169678 -123.68339355 92.08589355 -124.61499023 92.67749023 C-126.461921 93.85001762 -128.30900878 95.02229771 -130.15625 96.19433594 C-133.10576695 98.06715766 -136.05318397 99.94324413 -139 101.8203125 C-139.98371582 102.44687744 -140.96743164 103.07344238 -141.98095703 103.71899414 C-143.85182262 104.91073584 -145.72259715 106.10262051 -147.59326172 107.29467773 C-149.27510509 108.36547569 -150.95822524 109.4342718 -152.64282227 110.50073242 C-154.20419018 111.49383033 -155.75950726 112.4965113 -157.30834961 113.5090332 C-158.01741455 113.96753662 -158.72647949 114.42604004 -159.45703125 114.8984375 C-160.07553955 115.30368652 -160.69404785 115.70893555 -161.33129883 116.12646484 C-163 117 -163 117 -165.8125 117.0625 C-168.41230078 115.79973962 -169.35631094 114.33130683 -171 112 C-164.13345622 107.08520628 -157.1226306 102.49571237 -149.9375 98.0625 C-138.25492825 90.80801449 -126.66899744 83.41002586 -115.09570312 75.98291016 C-109.01186838 72.08599329 -102.91269608 68.21314673 -96.81396484 64.33959961 C-95.96012207 63.79698486 -95.1062793 63.25437012 -94.2265625 62.6953125 C-93.47971191 62.22109863 -92.73286133 61.74688477 -91.96337891 61.25830078 C-90.2971068 60.1904114 -88.64671361 59.09780907 -87 58 C-87.495 55.03 -87.495 55.03 -88 52 C-86.88367188 51.29617187 -85.76734375 50.59234375 -84.6171875 49.8671875 C-73.93347026 43.1274972 -63.26708249 36.36109161 -52.61328125 29.57421875 C-48.88369421 27.19836732 -45.15185402 24.82612159 -41.41796875 22.45703125 C-40.50047852 21.87429443 -39.58298828 21.29155762 -38.63769531 20.69116211 C-36.80866929 19.53016053 -34.97860443 18.37079378 -33.14746094 17.21313477 C-28.50379829 14.26844441 -23.90198234 11.2766664 -19.34765625 8.1953125 C-17.98374756 7.28084351 -17.98374756 7.28084351 -16.59228516 6.34790039 C-14.86338644 5.18517864 -13.14249765 4.01042794 -11.43115234 2.82202148 C-10.65852051 2.30454346 -9.88588867 1.78706543 -9.08984375 1.25390625 C-8.41816162 0.79314697 -7.74647949 0.3323877 -7.05444336 -0.14233398 C-4.29858021 -1.29282088 -2.82107639 -0.87592783 0 0 Z " fill="#009393" transform="translate(378,30)"/>
<path d="M0 0 C2.53846443 0.91457022 4.60476887 2.14047577 6.88745117 3.58227539 C7.82886963 4.17355225 8.77028809 4.7648291 9.74023438 5.37402344 C10.75432373 6.01895752 11.76841309 6.6638916 12.81323242 7.32836914 C13.87179443 7.99586182 14.93035645 8.66335449 16.02099609 9.35107422 C25.77050701 15.50975577 35.47902617 21.73314892 45.18432617 27.96118164 C51.3817957 31.93533025 57.59812496 35.87908176 63.83398438 39.79272461 C67.12450668 41.85911042 70.40275064 43.93514261 73.63354492 46.09399414 C74.6209668 46.74883789 75.60838867 47.40368164 76.62573242 48.07836914 C77.44041992 48.63137695 78.25510742 49.18438477 79.09448242 49.75415039 C81.23869741 51.12044595 81.23869741 51.12044595 84.12573242 49.76586914 C84.62073242 48.77586914 84.62073242 48.77586914 85.12573242 47.76586914 C88.56942824 49.05066613 91.56587196 50.54161867 94.65307617 52.53149414 C95.51610352 53.08450195 96.37913086 53.63750977 97.26831055 54.20727539 C98.19063477 54.80411133 99.11295898 55.40094727 100.06323242 56.01586914 C102.0514421 57.29202233 104.03972538 58.56806084 106.02807617 59.84399414 C107.04240723 60.4969043 108.05673828 61.14981445 109.10180664 61.82250977 C113.7660334 64.82002672 118.44613805 67.79242514 123.12573242 70.76586914 C124.95915301 71.93239868 126.79248608 73.09906578 128.62573242 74.26586914 C129.98698242 75.13211914 129.98698242 75.13211914 131.37573242 76.01586914 C134.12573242 77.76586914 136.87573242 79.51586914 139.62573242 81.26586914 C140.53492432 81.84433594 141.44411621 82.42280273 142.38085938 83.01879883 C144.19750587 84.17506694 146.01375552 85.33195881 147.82958984 86.48950195 C152.66500787 89.57073801 157.50866047 92.63800128 162.36401367 95.68774414 C163.38043945 96.3284082 164.39686523 96.96907227 165.4440918 97.62915039 C167.40514347 98.86488158 169.36860298 100.09680181 171.3347168 101.32446289 C172.21063477 101.8774707 173.08655273 102.43047852 173.98901367 103.00024414 C174.76543213 103.4871875 175.54185059 103.97413086 176.34179688 104.47583008 C178.12573242 105.76586914 178.12573242 105.76586914 179.12573242 107.76586914 C176.38786682 109.47368648 173.63377322 111.15336387 170.87573242 112.82836914 C170.09842773 113.31370117 169.32112305 113.7990332 168.52026367 114.29907227 C167.76616211 114.7534668 167.01206055 115.20786133 166.23510742 115.67602539 C165.19821777 116.31229858 165.19821777 116.31229858 164.14038086 116.96142578 C161.59405144 117.97816784 160.65717765 117.76866679 158.12573242 116.76586914 C156.47259208 115.8574638 154.8527746 114.8873691 153.25854492 113.87915039 C152.30189941 113.27772217 151.34525391 112.67629395 150.35961914 112.05664062 C148.82072021 111.07739624 148.82072021 111.07739624 147.25073242 110.07836914 C146.18226074 109.40427002 145.11378906 108.7301709 144.01293945 108.03564453 C140.71343316 105.95160489 137.41902844 103.85970581 134.12573242 101.76586914 C132.22470964 100.5601102 130.32366895 99.35437949 128.42260742 98.14868164 C123.90392718 95.27933182 119.39058938 92.4016821 114.87866211 89.52172852 C111.07777529 87.09746654 107.27301922 84.67930728 103.46850586 82.26074219 C94.33727145 76.45530348 85.21860427 70.63123699 76.12573242 64.76586914 C76.45573242 62.78586914 76.78573242 60.80586914 77.12573242 58.76586914 C76.29887939 58.23968994 76.29887939 58.23968994 75.45532227 57.70288086 C66.81681315 52.20564779 58.17830404 46.70841471 49.53979492 41.21118164 C48.64429932 40.64133545 47.74880371 40.07148926 46.82617188 39.484375 C45.01475766 38.33162709 43.20339764 37.17879403 41.39208984 36.02587891 C36.74597017 33.06873172 32.09886974 30.11314582 27.44995117 27.16040039 C23.7559759 24.81414518 20.06474207 22.46367323 16.37573242 20.10961914 C12.92592764 17.90826661 9.46709075 15.72229917 6.00073242 13.54711914 C4.43809142 12.55775847 2.87558384 11.56818703 1.31323242 10.57836914 C0.59546631 10.13275635 -0.1222998 9.68714355 -0.86181641 9.22802734 C-5.76092976 6.10588259 -5.76092976 6.10588259 -6.87426758 2.76586914 C-2.45059602 -0.30612499 -2.45059602 -0.30612499 0 0 Z " fill="#009292" transform="translate(213.874267578125,365.234130859375)"/>
<path d="M0 0 C1.85129868 0.72662805 3.68471856 1.50006635 5.5 2.3125 C7.55916572 3.05103017 9.62160521 3.78050783 11.6875 4.5 C13.29335362 5.09966841 14.89818117 5.70213577 16.5 6.3125 C12.61324038 10.30290654 8.53106071 13.98919628 4.3125 17.625 C3.31621582 18.48593262 3.31621582 18.48593262 2.29980469 19.36425781 C-2.0975157 23.14770119 -6.55752859 26.83389031 -11.11328125 30.42578125 C-15.6255441 33.99275826 -20.05320896 37.66449604 -24.5 41.3125 C-26.20822358 42.70846765 -27.91655857 44.10429898 -29.625 45.5 C-32.9630177 48.22979927 -36.29499763 50.96662375 -39.62109375 53.7109375 C-47.20403003 59.96721678 -54.79005809 66.21274252 -62.5 72.3125 C-64.15 71.3225 -65.8 70.3325 -67.5 69.3125 C-68.49966797 70.13041016 -68.49966797 70.13041016 -69.51953125 70.96484375 C-74.34635417 74.9140625 -79.17317708 78.86328125 -84 82.8125 C-84.91523438 83.56144531 -85.83046875 84.31039062 -86.7734375 85.08203125 C-88.52817784 86.51749935 -90.28335155 87.95243796 -92.0390625 89.38671875 C-97.70340893 94.01573902 -103.35424455 98.66083328 -109 103.3125 C-110.46742397 104.52086242 -111.93487145 105.72919628 -113.40234375 106.9375 C-115.85438755 108.95649807 -118.30501949 110.97717469 -120.75390625 113 C-122.54283883 114.47294588 -124.33780423 115.9386169 -126.140625 117.39453125 C-127.6937813 118.65711361 -129.22605781 119.94589659 -130.734375 121.26171875 C-132.61727514 122.83670101 -134.30601077 124.21310496 -136.5 125.3125 C-140.27867018 124.75269701 -141.81923129 123.99326871 -144.5 121.3125 C-138.53935131 115.75014351 -132.39838186 110.59733881 -125.95654297 105.61206055 C-121.69564449 102.29694634 -117.57482065 98.85311463 -113.5 95.3125 C-108.37722398 90.8640369 -103.13306465 86.62636932 -97.76977539 82.47241211 C-92.20976865 78.14100643 -86.87924962 73.56147754 -81.55859375 68.94140625 C-78.9269743 66.66088917 -76.23585238 64.4675569 -73.5 62.3125 C-74.49 59.8375 -74.49 59.8375 -75.5 57.3125 C-69.96858604 52.22830674 -64.3600013 47.32413352 -58.4609375 42.671875 C-54.62569804 39.61582667 -50.84442591 36.49662902 -47.0625 33.375 C-45.58204129 32.15363367 -44.1015727 30.9322793 -42.62109375 29.7109375 C-41.91452637 29.12795898 -41.20795898 28.54498047 -40.47998047 27.94433594 C-36.16404821 24.387284 -31.83128615 20.85082761 -27.5 17.3125 C-25.66654964 15.81264304 -23.83321829 14.3126406 -22 12.8125 C-21.0925 12.08546875 -20.185 11.3584375 -19.25 10.609375 C-16.43783738 8.31898527 -16.43783738 8.31898527 -13.75 5.640625 C-6.04023669 -1.58727811 -6.04023669 -1.58727811 0 0 Z " fill="#009393" transform="translate(330.5,9.6875)"/>
<path d="M0 0 C3.79084156 2.03042226 6.74719822 4.72482239 9.9296875 7.59375 C11.27088113 8.78006538 12.61332943 9.96496382 13.95703125 11.1484375 C14.60655762 11.72174805 15.25608398 12.29505859 15.92529297 12.88574219 C18.98802137 15.55420912 22.16635504 18.06763912 25.35546875 20.58203125 C29.8677316 24.14900826 34.29539646 27.82074604 38.7421875 31.46875 C41.34845418 33.59860234 43.95516819 35.72780593 46.56640625 37.8515625 C49.09494111 39.92059036 51.58588207 42.03127726 54.07421875 44.1484375 C54.83395996 44.78885986 55.59370117 45.42928223 56.37646484 46.08911133 C57.89257628 47.36753686 59.40223132 48.65366513 60.90478516 49.94799805 C61.60265137 50.53363525 62.30051758 51.11927246 63.01953125 51.72265625 C63.64077881 52.25189697 64.26202637 52.7811377 64.90209961 53.32641602 C66.9476124 54.82037201 66.9476124 54.82037201 70.7421875 54.46875 C71.2371875 53.47875 71.2371875 53.47875 71.7421875 52.46875 C74.65894002 53.81571832 77.00153985 55.35319687 79.46484375 57.41015625 C80.16270996 57.98934814 80.86057617 58.56854004 81.57958984 59.1652832 C82.68101318 60.08893677 82.68101318 60.08893677 83.8046875 61.03125 C85.33973676 62.30742038 86.87489296 63.58346212 88.41015625 64.859375 C89.15442871 65.48005859 89.89870117 66.10074219 90.66552734 66.74023438 C93.30366677 68.93609931 95.95806074 71.11084842 98.6171875 73.28125 C99.47054687 73.97863281 100.32390625 74.67601562 101.203125 75.39453125 C102.04101562 76.07902344 102.87890625 76.76351562 103.7421875 77.46875 C106.50023414 79.7249744 109.25792747 81.98163017 112.015625 84.23828125 C113.77036534 85.67374935 115.52553905 87.10868796 117.28125 88.54296875 C121.49501001 91.98654 125.70407802 95.43517092 129.8984375 98.90234375 C140.69746098 107.83904291 140.69746098 107.83904291 151.7421875 116.46875 C150.7421875 119.46875 150.7421875 119.46875 149.03979492 120.3918457 C146.6742109 121.20408488 144.30873333 122.00911971 141.9296875 122.78125 C140.69895508 123.2153418 140.69895508 123.2153418 139.44335938 123.65820312 C138.64865234 123.92181641 137.85394531 124.18542969 137.03515625 124.45703125 C136.3083667 124.69977783 135.58157715 124.94252441 134.83276367 125.19262695 C131.31327304 125.65748085 129.28898003 123.87518937 126.55078125 121.83984375 C125.76832031 121.20175781 124.98585938 120.56367188 124.1796875 119.90625 C123.30054688 119.19210937 122.42140625 118.47796875 121.515625 117.7421875 C120.60039062 116.99195313 119.68515625 116.24171875 118.7421875 115.46875 C117.84757812 114.73914063 116.95296875 114.00953125 116.03125 113.2578125 C113.26493467 110.99878709 110.50342383 108.73397924 107.7421875 106.46875 C106.03396392 105.07278235 104.32562893 103.67695102 102.6171875 102.28125 C97.81681086 98.35429433 93.02875917 94.41251561 88.2421875 90.46875 C86.77476353 89.26038758 85.30731605 88.05205372 83.83984375 86.84375 C81.38779995 84.82475193 78.93716801 82.80407531 76.48828125 80.78125 C71.3357748 76.53885248 66.13178 72.4067044 60.7421875 68.46875 C61.4021875 66.48875 62.0621875 64.50875 62.7421875 62.46875 C56.20059249 56.85080213 49.61991787 51.3156066 42.8046875 46.03125 C37.38854802 41.82813926 32.16838438 37.44366603 26.99243164 32.94946289 C22.44805229 29.02376316 17.76739852 25.30921779 13.01855469 21.63525391 C7.93034988 17.67472859 3.03881214 13.50543395 -1.81640625 9.26367188 C-4.83734048 6.58058339 -4.83734048 6.58058339 -8.2578125 4.46875 C-8.2578125 3.80875 -8.2578125 3.14875 -8.2578125 2.46875 C-3.0053695 -0.70714577 -3.0053695 -0.70714577 0 0 Z " fill="#009292" transform="translate(194.2578125,377.53125)"/>
<path d="M0 0 C1.88372061 1.61113752 3.5926082 3.21332904 5.31933594 4.97875977 C5.83685928 5.49584503 6.35438263 6.0129303 6.8875885 6.54568481 C8.59372597 8.25390966 10.28899592 9.97250895 11.984375 11.69140625 C13.16627559 12.87890296 14.34884096 14.06573835 15.53204346 15.25193787 C18.64252102 18.3738629 21.74388392 21.50469244 24.84344482 24.63745117 C28.00867181 27.83338097 31.18242168 31.0208219 34.35546875 34.20898438 C40.57869148 40.46436954 46.79231978 46.72919325 53 53 C54.65 52.01 56.3 51.02 58 50 C81.1 73.1 104.2 96.2 128 120 C125.16572423 122.83427577 122.75592507 122.63450488 118.8125 123.125 C117.51957031 123.29257812 116.22664063 123.46015625 114.89453125 123.6328125 C113.60933594 123.75398438 112.32414062 123.87515625 111 124 C109.89466415 124.12117187 108.78932831 124.24234375 107.65049744 124.3671875 C102.90600553 123.8899599 100.84907967 121.79176765 97.69750977 118.4921875 C97.11127335 117.90697327 96.52503693 117.32175903 95.92103577 116.71881104 C93.99409357 114.78700538 92.09310894 112.83163003 90.19140625 110.875 C88.85773052 109.52826387 87.52249726 108.18306853 86.18577576 106.83935547 C82.67668067 103.30357069 79.18911531 99.7472711 75.70562744 96.1862793 C72.1452986 92.55426326 68.56499813 88.94205438 64.98632812 85.328125 C57.97120062 78.23798959 50.97865939 71.12602021 44 64 C44.99 62.35 45.98 60.7 47 59 C44.00428676 55.97489042 41.00265195 52.95572125 38 49.9375 C36.74123047 48.66616211 36.74123047 48.66616211 35.45703125 47.36914062 C34.62558594 46.53447266 33.79414063 45.69980469 32.9375 44.83984375 C32.18339844 44.08050537 31.42929688 43.32116699 30.65234375 42.53881836 C28.52723414 40.5046675 26.37345744 38.56923122 24.15039062 36.64599609 C20.16519772 33.18421525 16.39133893 29.55254831 12.65625 25.82421875 C12.00168823 25.17298538 11.34712646 24.52175201 10.67272949 23.8507843 C9.30688843 22.4899596 7.94235572 21.12782052 6.57910156 19.7644043 C4.48260731 17.67012569 2.37820186 15.58400998 0.2734375 13.49804688 C-1.05777923 12.1697593 -2.388526 10.84100051 -3.71875 9.51171875 C-4.34986694 8.88778732 -4.98098389 8.2638559 -5.63122559 7.62101746 C-10 3.22885912 -10 3.22885912 -10 1 C-3.60281782 -1.47163857 -3.60281782 -1.47163857 0 0 Z " fill="#009393" transform="translate(169,388)"/>
<path d="M0 0 C2.32999774 0.36311069 4.66343887 0.68078435 7 1 C7 5 7 5 4.4375 7.98828125 C3.30177762 9.10671511 2.15544066 10.21444877 1 11.3125 C0.17048828 12.12750977 0.17048828 12.12750977 -0.67578125 12.95898438 C-3.5410745 15.74852849 -6.47641298 18.42117789 -9.52148438 21.01269531 C-15.02305679 25.81516613 -20.1339397 31.0094023 -25.28125 36.18359375 C-26.34576772 37.24998085 -27.41050962 38.31614419 -28.47546387 39.38209534 C-31.25263833 42.16305407 -34.02679425 44.94700444 -36.80029297 47.73162842 C-39.64105638 50.5826948 -42.48471872 53.43086669 -45.328125 56.27929688 C-50.8882283 61.85006518 -56.44514018 67.42400319 -62 73 C-63.65 72.01 -65.3 71.02 -67 70 C-67.65653061 70.68095734 -68.31306122 71.36191467 -68.98948669 72.06350708 C-75.182548 78.4796291 -81.40451217 84.86644773 -87.65586758 91.22580147 C-90.86886963 94.49619516 -94.07085694 97.7760102 -97.24975586 101.07958984 C-100.31851552 104.26794139 -103.41344839 107.42858827 -106.52827644 110.57192612 C-107.71133015 111.77529354 -108.88466346 112.98829814 -110.04784966 114.21088028 C-119.21747501 123.82962263 -119.21747501 123.82962263 -123.78860474 124.26654053 C-126.10218067 123.76729683 -127.93688363 123.14623779 -130 122 C-128.07174062 117.74185965 -125.11511079 115.13015568 -121.68359375 112.0546875 C-111.49266516 102.73124024 -101.80406634 92.9129756 -92.0625 83.125 C-90.20401246 81.26148294 -88.34528998 79.39820015 -86.48632812 77.53515625 C-81.98818011 73.02612799 -77.49291519 68.51424209 -73 64 C-73.99 62.35 -74.98 60.7 -76 59 C-68.50452708 51.10942105 -60.96283343 43.26628233 -53.35990906 35.47910213 C-49.83024685 31.86097022 -46.31800937 28.22890068 -42.84179688 24.55932617 C-39.48177821 21.01362615 -36.08102279 17.51200012 -32.6489563 14.03604317 C-31.35172189 12.70756391 -30.06946078 11.36428015 -28.80343628 10.00602531 C-19.3802047 -0.07497968 -13.79807329 -2.9136959 0 0 Z " fill="#009393" transform="translate(289,1)"/>
<path d="M0 0 C3.5086911 -0.65925303 6.49919001 -0.7670314 10 0 C13.66895712 2.7894126 16.24086349 6.33501633 19 10 C19.84753749 11.08676445 20.69788267 12.17134412 21.55078125 13.25390625 C22.91474904 14.98655444 24.27585466 16.7208872 25.62597656 18.46435547 C29.68664803 23.68863584 33.99047654 28.67441224 38.35205078 33.64819336 C42.17294944 38.01419461 45.84802695 42.46864595 49.4140625 47.046875 C50.85419081 48.82043203 52.35136954 50.42131144 54 52 C55.65 51.34 57.3 50.68 59 50 C66.4930417 58.80957613 73.87672129 67.69726144 81.171875 76.671875 C85.25276699 81.67892688 89.37816061 86.64194695 93.5625 91.5625 C97.45963816 96.14721044 101.27306519 100.78510727 105.0078125 105.50390625 C108.05884654 109.32667243 111.1881475 113.08471143 114.3125 116.84765625 C116 119 116 119 116 120 C111.32754286 120.1260933 106.67302606 120.09281085 102 120 C100.87722656 120.01546875 99.75445312 120.0309375 98.59765625 120.046875 C92.24085183 119.70784543 88.59758587 118.20964632 84.38330078 113.56298828 C82.31864737 111.08126018 80.35486362 108.53958997 78.43652344 105.94335938 C76.62741469 103.49595869 74.74610758 101.11062786 72.859375 98.72290039 C71.95126806 97.5719466 71.04762705 96.41745542 70.1484375 95.25952148 C66.84030853 91.00612793 63.39757117 86.88950343 59.875 82.8125 C59.37637451 82.2345166 58.87774902 81.6565332 58.36401367 81.06103516 C57.38347967 79.92462801 56.40292986 78.7882345 55.42236328 77.65185547 C53.20197197 75.07321359 50.99818423 72.48327293 48.8125 69.875 C48.09707031 69.02679688 47.38164062 68.17859375 46.64453125 67.3046875 C45.03543718 65.04966256 44.19319831 63.74893594 44 61 C44.9375 58.75 44.9375 58.75 46 57 C44.83984375 55.65808594 44.83984375 55.65808594 43.65625 54.2890625 C38.34467858 48.12887153 33.10088084 41.94269528 28.05859375 35.55859375 C25.59187912 32.49275298 23.05112966 29.49563481 20.5 26.5 C15.89168727 21.08323905 11.397906 15.58977549 7 10 C6.32453125 9.14792969 5.6490625 8.29585938 4.953125 7.41796875 C0 1.1275 0 1.1275 0 0 Z " fill="#009292" transform="translate(127,392)"/>
<path d="M0 0 C-2.78068497 4.33631292 -5.81474098 8.29053965 -9.1875 12.1875 C-10.16868636 13.33402168 -11.14914452 14.48116691 -12.12890625 15.62890625 C-12.8561792 16.4799292 -12.8561792 16.4799292 -13.59814453 17.34814453 C-17.13092259 21.51094083 -20.55632147 25.76353217 -24 30 C-28.79840131 35.90306924 -33.63435647 41.76752517 -38.5625 47.5625 C-42.55163781 52.25360987 -46.44738612 57.00616809 -50.2734375 61.83203125 C-52.47203035 64.5927078 -54.72681499 67.3005928 -57 70 C-59 69 -61 68 -63 67 C-63.22558594 67.53496094 -63.45117188 68.06992188 -63.68359375 68.62109375 C-65.42648737 71.77071456 -67.71219813 74.35985305 -70.0625 77.0625 C-71.06192629 78.22723999 -72.06061364 79.3926144 -73.05859375 80.55859375 C-73.55601074 81.13851074 -74.05342773 81.71842773 -74.56591797 82.31591797 C-77.37238011 85.61162377 -80.09587265 88.97484884 -82.828125 92.33203125 C-84.27094761 94.10441946 -85.71884034 95.87269286 -87.171875 97.63671875 C-88.26242188 98.96123047 -88.26242188 98.96123047 -89.375 100.3125 C-90.1175 101.20195313 -90.86 102.09140625 -91.625 103.0078125 C-93.39783414 105.24135025 -95.02204783 107.45533144 -96.625 109.8046875 C-103.44306424 119.56096346 -103.44306424 119.56096346 -108.14453125 120.88671875 C-110.90601175 120.87608404 -113.32166481 120.65274707 -116 120 C-111.23094384 113.47293882 -106.14096655 107.23588122 -101 101 C-99.54137572 99.20857019 -98.08304143 97.41690422 -96.625 95.625 C-93.27290716 91.52409759 -89.8685018 87.47220233 -86.4375 83.4375 C-81.85171948 78.04222953 -77.3584465 72.58168974 -73 67 C-72.08734375 66.05833984 -72.08734375 66.05833984 -71.15625 65.09765625 C-70.7746875 64.40542969 -70.393125 63.71320312 -70 63 C-70.3403125 62.02675781 -70.680625 61.05351563 -71.03125 60.05078125 C-71.3509375 59.04402344 -71.670625 58.03726563 -72 57 C-70.71875 54.60546875 -70.71875 54.60546875 -68.5 52.1875 C-67.66210938 51.24003906 -66.82421875 50.29257812 -65.9609375 49.31640625 C-65.48881836 48.79320801 -65.01669922 48.27000977 -64.53027344 47.73095703 C-61.62732288 44.44730683 -58.89387745 41.02162077 -56.125 37.625 C-51.83275535 32.40201842 -47.50592214 27.2112845 -43.125 22.0625 C-35.41375966 13.28278034 -35.41375966 13.28278034 -28.64453125 3.80078125 C-22.97015183 -2.41273161 -7.71542197 -0.20821229 0 0 Z " fill="#009393" transform="translate(243,0)"/>
<path d="M0 0 C4.73108514 0.12603301 8.59684651 0.64658516 12.09375 4.01953125 C14.22469277 6.93211082 16.12623698 9.91527732 18 13 C18.75171882 14.19538877 19.50570613 15.38935341 20.26171875 16.58203125 C21.92457923 19.21636303 23.56625188 21.86267711 25.19921875 24.515625 C28.91168382 30.51070875 32.80840319 36.38805616 36.7097168 42.26147461 C37.23863525 43.06593018 37.76755371 43.87038574 38.3125 44.69921875 C38.78300781 45.40908936 39.25351563 46.11895996 39.73828125 46.8503418 C41.09503386 49.1619143 42.06462113 51.49165861 43 54 C43.598125 53.67 44.19625 53.34 44.8125 53 C47 52 47 52 50 52 C51.19165039 53.41430664 51.19165039 53.41430664 52.34765625 55.41015625 C52.78271484 56.14500244 53.21777344 56.87984863 53.66601562 57.63696289 C54.12685547 58.43739014 54.58769531 59.23781738 55.0625 60.0625 C56.05088715 61.73064943 57.04181446 63.39729618 58.03515625 65.0625 C58.53289551 65.89910156 59.03063477 66.73570312 59.54345703 67.59765625 C61.59830573 70.98681333 63.77872839 74.28082234 66 77.5625 C70.0803631 83.60778371 74.06544208 89.70816968 78.01098633 95.84228516 C81.4708333 101.21184841 85.02173053 106.51061742 88.63671875 111.77734375 C90 114 90 114 90 116 C80.03804614 114.82800543 65.90904872 112.95657456 58.96875 105.078125 C56.80511873 102.06326518 55.09840258 98.81307765 53.38769531 95.52587891 C50.73575487 90.69882474 47.65784677 86.12685272 44.6600647 81.50970459 C42.29926697 77.85911638 39.98054048 74.18134223 37.65063477 70.51098633 C36.17717628 68.26952493 34.63716083 66.12367413 33 64 C33.66 62.68 34.32 61.36 35 60 C35.66 60 36.32 60 37 60 C31.01128601 50.02711038 24.87004189 40.17189778 18.5 30.4375 C17.86755371 29.47102539 17.23510742 28.50455078 16.58349609 27.50878906 C14.14536495 23.78799164 11.70382829 20.06945593 9.25830078 16.35351562 C7.68919621 13.96733249 6.12541768 11.57773799 4.5625 9.1875 C4.09585938 8.48230225 3.62921875 7.77710449 3.1484375 7.05053711 C0 2.22676758 0 2.22676758 0 0 Z " fill="#009292" transform="translate(100,388)"/>
<path d="M0 0 C-1.69653844 5.11005554 -4.67123748 9.30176383 -7.625 13.75 C-8.80038406 15.53846813 -9.97481817 17.32756083 -11.1484375 19.1171875 C-11.77202148 20.0669043 -12.39560547 21.01662109 -13.03808594 21.99511719 C-16.47875782 27.26487696 -19.862893 32.57071537 -23.25 37.875 C-24.59891263 39.98570629 -25.94786968 42.0963842 -27.296875 44.20703125 C-27.92916016 45.19654785 -28.56144531 46.18606445 -29.21289062 47.20556641 C-32.79757271 52.81079471 -36.39754223 58.40618362 -40 64 C-41.65 63.34 -43.3 62.68 -45 62 C-50.01397753 68.61060725 -54.57041108 75.37987345 -58.91967773 82.43676758 C-63.04400156 89.1171209 -67.32316589 95.69229424 -71.62182617 102.26147461 C-72.41036987 103.46815796 -72.41036987 103.46815796 -73.21484375 104.69921875 C-73.71056885 105.45033936 -74.20629395 106.20145996 -74.71704102 106.9753418 C-76.11927792 109.11749013 -76.11927792 109.11749013 -77.5234375 112 C-79 114 -79 114 -81.69921875 114.92578125 C-82.68535156 115.05339844 -83.67148438 115.18101563 -84.6875 115.3125 C-85.68136719 115.45300781 -86.67523438 115.59351562 -87.69921875 115.73828125 C-88.45847656 115.82464844 -89.21773438 115.91101563 -90 116 C-88.66438642 112.3710106 -87.04017 109.30148943 -84.91015625 106.078125 C-83.98891968 104.67590698 -83.98891968 104.67590698 -83.04907227 103.24536133 C-82.39350342 102.25689209 -81.73793457 101.26842285 -81.0625 100.25 C-79.69762567 98.17597272 -78.33304458 96.10175244 -76.96875 94.02734375 C-75.95748047 92.49376221 -75.95748047 92.49376221 -74.92578125 90.92919922 C-72.28058709 86.90574086 -69.66932014 82.86088183 -67.0625 78.8125 C-63.27110217 72.92840677 -59.40688861 67.10233882 -55.4609375 61.3203125 C-53.86369523 58.98753357 -53.86369523 58.98753357 -53 56 C-54.32 55.34 -55.64 54.68 -57 54 C-52.66590492 45.7801645 -47.59203338 38.08449695 -42.51123047 30.31542969 C-39.97344605 26.42716678 -37.45672522 22.52530197 -34.9375 18.625 C-34.03023142 17.2211709 -33.12269993 15.81751167 -32.21484375 14.4140625 C-31.83448975 13.8257666 -31.45413574 13.2374707 -31.06225586 12.63134766 C-28.45364851 8.62520784 -27.2328201 7.45206346 -22.6953125 5.95703125 C-21.10783203 5.43012695 -21.10783203 5.43012695 -19.48828125 4.89257812 C-18.37839844 4.53615234 -17.26851563 4.17972656 -16.125 3.8125 C-15.02285156 3.44447266 -13.92070312 3.07644531 -12.78515625 2.69726562 C-4.54823748 0 -4.54823748 0 0 0 Z " fill="#009393" transform="translate(190,8)"/>
<path d="M0 0 C7.51507307 2.5456569 11.95176419 5.00837723 15.62597656 12.14794922 C16.0587793 13.06850098 16.49158203 13.98905273 16.9375 14.9375 C17.92998624 16.89764377 18.92350903 18.85726297 19.91796875 20.81640625 C20.41731934 21.82719238 20.91666992 22.83797852 21.43115234 23.87939453 C24.06571723 29.11982533 26.91751473 34.23972236 29.75 39.375 C30.76661792 41.23643723 31.78233677 43.09836596 32.796875 44.9609375 C33.22323242 45.74259277 33.64958984 46.52424805 34.08886719 47.32958984 C34.38954102 47.8808252 34.69021484 48.43206055 35 49 C37.475 48.505 37.475 48.505 40 48 C43.89801926 54.04157612 47.28609482 60.22836496 50.5625 66.625 C55.23541872 75.67878002 60.03585967 84.65032851 64.99047852 93.55322266 C67.95640753 98.92452573 70.61107592 104.34769611 73 110 C66.94461316 108.36231608 61.82412711 105.24258988 56.4375 102.125 C55.50486328 101.59519531 54.57222656 101.06539063 53.61132812 100.51953125 C46.62037815 96.50334759 41.32491486 93.38137981 37.58984375 85.984375 C36.99236328 84.81519531 36.39488281 83.64601563 35.77929688 82.44140625 C35.16510669 81.21106621 34.55117608 79.98059655 33.9375 78.75 C33.32072952 77.53461365 32.7028993 76.31976448 32.08398438 75.10546875 C30.376931 71.74303496 28.6851472 68.37345504 27 65 C26.56316895 64.12794922 26.12633789 63.25589844 25.67626953 62.35742188 C24.78258509 60.57241204 23.89096302 58.78636975 23 57 C24.65 56.34 26.3 55.68 28 55 C26.11079812 51.4666606 24.22064254 47.93383288 22.3298645 44.40133667 C21.65287966 43.13613025 20.97618178 41.87077024 20.29977417 40.60525513 C16.60169115 33.68640018 12.88845447 26.77736139 9.109375 19.90234375 C8.51084717 18.81050781 7.91231934 17.71867187 7.2956543 16.59375 C6.15651236 14.51925684 5.01228793 12.44754498 3.86254883 10.37890625 C3.35232178 9.44820313 2.84209473 8.5175 2.31640625 7.55859375 C1.86724854 6.74704834 1.41809082 5.93550293 0.95532227 5.09936523 C0 3 0 3 0 0 Z " fill="#009292" transform="translate(70,377)"/>
<path d="M0 0 C-1.458079 3.82294764 -3.17775593 7.42395848 -5.0546875 11.05859375 C-5.35253143 11.63609375 -5.65037537 12.21359375 -5.95724487 12.80859375 C-6.92711127 14.6863168 -7.90080127 16.56202143 -8.875 18.4375 C-9.20681274 19.07817413 -9.53862549 19.71884827 -9.88049316 20.37893677 C-15.31620859 30.87104424 -20.90108142 41.27443277 -26.609375 51.62109375 C-28.49283273 55.04270863 -30.28770852 58.48980247 -32 62 C-33.65 61.34 -35.3 60.68 -37 60 C-38.19222232 62.08073489 -39.37914413 64.16421962 -40.5625 66.25 C-40.95018555 66.93151123 -41.33787109 67.61302246 -41.73730469 68.31518555 C-44.50575857 73.22639744 -47.1591825 78.19062854 -49.76171875 83.19140625 C-50.7591594 85.09601394 -51.75736164 87.00022124 -52.75558472 88.90441895 C-53.41662339 90.17281795 -54.07284997 91.44373687 -54.72415161 92.71716309 C-55.65316906 94.53274791 -56.59841231 96.33904664 -57.546875 98.14453125 C-58.09182617 99.20003174 -58.63677734 100.25553223 -59.19824219 101.34301758 C-62.50324332 106.21677467 -67.73589357 107.83242676 -73 110 C-71.756333 106.03013943 -70.30885961 102.40406929 -68.3828125 98.71875 C-67.86364258 97.72174072 -67.34447266 96.72473145 -66.80957031 95.69750977 C-66.25366211 94.64233154 -65.69775391 93.58715332 -65.125 92.5 C-64.26793457 90.86212524 -64.26793457 90.86212524 -63.39355469 89.19116211 C-58.04882559 79.01369899 -52.55996698 68.91594635 -47.00878906 58.84985352 C-46.31578099 57.57905919 -45.64732965 56.29465931 -45 55 C-46.65 54.34 -48.3 53.68 -50 53 C-48.17947994 49.26506485 -46.33264906 45.54730495 -44.44140625 41.84765625 C-42.76074411 38.5559372 -41.18593734 35.23356914 -39.65234375 31.87109375 C-33.74688837 19.4671861 -27.41455716 13.09878939 -15.1015625 7.04150391 C-13.18227502 6.09033286 -11.32495796 5.07957792 -9.46875 4.01171875 C-2.45977011 0 -2.45977011 0 0 0 Z " fill="#009393" transform="translate(143,25)"/>
<path d="M0 0 C7.07308837 3.28178152 11.35819042 6.41715746 14.26171875 13.80859375 C15.11256412 16.34793846 15.91722158 18.87536824 16.6875 21.4375 C17.11555479 22.75572708 17.54717396 24.07280228 17.98242188 25.38867188 C19.02377273 28.58292786 20.02786723 31.78414011 21 35 C22.98 35 24.96 35 27 35 C33.6 53.81 40.2 72.62 47 92 C41.17648086 92 36.09837915 85.48150583 31.90185547 81.68359375 C30.14229873 80.12596817 28.33906813 78.65437577 26.50390625 77.1875 C15.47672138 67.88877942 12.00762887 55.50345215 8 42 C8.66 41.34 9.32 40.68 10 40 C10.99 40 11.98 40 13 40 C12.60619141 38.85934082 12.21238281 37.71868164 11.80664062 36.54345703 C10.34993867 32.32153524 8.89725632 28.09823975 7.44580078 23.87451172 C6.81636822 22.04470543 6.18583799 20.21527636 5.55419922 18.38623047 C4.64784295 15.76106984 3.74540942 13.13458946 2.84375 10.5078125 C2.55939087 9.68693146 2.27503174 8.86605042 1.98205566 8.02029419 C0 2.22774341 0 2.22774341 0 0 Z " fill="#009292" transform="translate(49,364)"/>
<path d="M0 0 C0.66 0 1.32 0 2 0 C-0.09423278 7.2516958 -2.47451363 14.36888923 -5.01171875 21.4765625 C-5.57135063 23.05345352 -5.57135063 23.05345352 -6.14228821 24.66220093 C-7.32174636 27.98394903 -8.50456485 31.30448874 -9.6875 34.625 C-10.49306193 36.89184771 -11.29840262 39.15877405 -12.10351562 41.42578125 C-14.06645435 46.95143223 -16.03214532 52.47609796 -18 58 C-19.98 58 -21.96 58 -24 58 C-24.25579834 58.81678223 -24.51159668 59.63356445 -24.77514648 60.47509766 C-25.75084793 63.53674403 -26.75481189 66.58725219 -27.77807617 69.63330078 C-28.21291115 70.94666018 -28.63669732 72.2637366 -29.04858398 73.58447266 C-31.56950581 81.63801009 -33.61125581 87.04944878 -41.22680664 91.19287109 C-41.81196045 91.45922363 -42.39711426 91.72557617 -43 92 C-43.66 91.67 -44.32 91.34 -45 91 C-44.64172119 89.99098633 -44.28344238 88.98197266 -43.91430664 87.94238281 C-42.58366383 84.19336856 -41.25545686 80.44349517 -39.92797852 76.69335938 C-39.35344629 75.07137955 -38.77825657 73.44963247 -38.20239258 71.828125 C-37.37407623 69.49540321 -36.54813944 67.16185062 -35.72265625 64.828125 C-35.46533218 64.10506165 -35.20800812 63.38199829 -34.94288635 62.63702393 C-33.81671614 59.44662151 -32.78532088 56.29003417 -32 53 C-33.32 52.67 -34.64 52.34 -36 52 C-35.44510443 48.94807434 -34.76725398 46.00412379 -34 43 C-33.68933594 41.72769531 -33.37867188 40.45539063 -33.05859375 39.14453125 C-29.58439383 26.62721472 -22.72224686 19.32149893 -13 11 C-12.42862305 10.50935059 -11.85724609 10.01870117 -11.26855469 9.51318359 C-8.90633962 7.5062263 -6.51268107 5.55031025 -4.07421875 3.63671875 C-1.94131787 2.01937377 -1.94131787 2.01937377 0 0 Z " fill="#009393" transform="translate(94,55)"/>
<path d="M0 0 C1.33277084 4.37532668 0.39206578 8.01325563 -0.58203125 12.37890625 C-0.75627121 13.1873851 -0.93051117 13.99586395 -1.11003113 14.82884216 C-1.47995045 16.53518708 -1.85426692 18.24058386 -2.23266602 19.94506836 C-2.81063657 22.55408828 -3.37214341 25.16626043 -3.93164062 27.77929688 C-4.29329504 29.43771309 -4.65589353 31.09592378 -5.01953125 32.75390625 C-5.27123833 33.92585289 -5.27123833 33.92585289 -5.5280304 35.12147522 C-6.30520645 38.58562498 -7.00920464 41.01380697 -9 44 C-10.65 43.67 -12.3 43.34 -14 43 C-14.1546875 44.85625 -14.1546875 44.85625 -14.3125 46.75 C-14.52635152 48.50193747 -14.75699719 50.25186757 -15 52 C-15.12632813 52.93972656 -15.25265625 53.87945312 -15.3828125 54.84765625 C-17.09450691 63.9967834 -21.78765612 69.42633781 -28 76 C-28.66 75.67 -29.32 75.34 -30 75 C-27.36 64.11 -24.72 53.22 -22 42 C-22.99 41.34 -23.98 40.68 -25 40 C-23.49695354 34.6464525 -21.02342752 30.31257404 -18.125 25.625 C-17.64828857 24.84785645 -17.17157715 24.07071289 -16.68041992 23.27001953 C-11.60837487 15.14388407 -5.89010323 7.54508861 0 0 Z " fill="#009393" transform="translate(52,98)"/>
<path d="M0 0 C5.40897939 1.80299313 8.22689464 6.17914884 11 11 C13.28211568 17.5833086 15 25.03256526 15 32 C16.98 31.67 18.96 31.34 21 31 C22.12587092 35.97938698 23.24670157 40.95987283 24.36303711 45.94140625 C24.74286508 47.63311773 25.12402755 49.3245302 25.5065918 51.015625 C26.05875905 53.45754326 26.60599153 55.90052496 27.15234375 58.34375 C27.3221727 59.08991577 27.49200165 59.83608154 27.66697693 60.6048584 C28.73088986 65.39070976 29.45824481 70.12661112 30 75 C21.77709826 67.00630807 15.73311736 57.85901143 10 48 C9.51901855 47.17483887 9.03803711 46.34967773 8.54248047 45.49951172 C6.54859373 42.00535994 4.82716285 38.96682399 4 35 C5.485 34.505 5.485 34.505 7 34 C4.69 22.78 2.38 11.56 0 0 Z " fill="#009393" transform="translate(23,339)"/>
<path d="M0 0 C0.33 0 0.66 0 1 0 C2.57542103 31.02367564 2.57542103 31.02367564 -5.98681641 44.26318359 C-7.74207694 47.27208081 -8.79137382 50.51439629 -9.875 53.8125 C-11.03014704 57.32236986 -11.9438864 59.9158296 -14 63 C-13.69090167 47.29218486 -11.50060878 11.50060878 0 0 Z " fill="#009393" transform="translate(14,158)"/>
<path d="M0 0 C1.67382666 2.51073999 2.55674283 4.27807801 3.515625 7.0625 C3.79462646 7.85309814 4.07362793 8.64369629 4.36108398 9.45825195 C4.65442627 10.29702881 4.94776855 11.13580566 5.25 12 C7.19592708 17.54102349 9.08502235 22.44702769 12.4375 27.3125 C17.22870974 35.26819575 15.46130228 46.06138118 15 55 C14.34 55 13.68 55 13 55 C8.86309421 42.97492639 5.32797834 30.91762279 2.5625 18.5 C2.30388184 17.34975342 2.04526367 16.19950684 1.77880859 15.0144043 C0.6706815 9.88808229 -0.13281194 5.2657746 0 0 Z " fill="#009292" transform="translate(0,291)"/>
</svg>
